# xmcd
#
# Track frame offsets:
#	150
#	15438
#	33609
#	47775
#	66067
#	82290
#	101959
#	119338
#	136304
#	152237
#	168407
#	186871
#
# Disc length: 2676 seconds
#
# Revision: 1
# Processed by: cddbd v1.5.1PL0 Copyright (c) Steve Scherf et al.
# Submitted via: audiograbber 1.82.01
#
DISCID=a70a720c
DTITLE=Enzo and Rodrigo - enzo e rodrigo
DYEAR=1994
DGENRE=popular
TTITLE0=Moça Bonita
TTITLE1=Viver Sem Ti
TTITLE2=Doeu
TTITLE3=Eu Sou o Amor
TTITLE4=Vem
TTITLE5=Tudo Com Você
TTITLE6=Não Fuja de Mim
TTITLE7=Quando Um Homem Ama Uma Mulher
TTITLE8=A Lua e Eu
TTITLE9=O Teu Olhar
TTITLE10=Pra Que Sofrer
TTITLE11=Quando o Amor Chega
EXTD=
EXTT0=
EXTT1=
EXTT2=
EXTT3=
EXTT4=
EXTT5=
EXTT6=
EXTT7=
EXTT8=
EXTT9=
EXTT10=
EXTT11=
PLAYORDER=
